<svg width="419" height="513" viewBox="0 0 419 513" fill="none" xmlns="http://www.w3.org/2000/svg">
<path d="M67.5001 307.5C43.6455 287.64 29.2755 274.563 8.00005 251C-16 319 14 504.5 214 513C409.5 502 421.5 313 418.5 293C418.5 293 390 324.5 366.5 319.5C389.494 253.422 396.934 216.837 348.5 143C329.116 173.922 316.201 190.885 289.832 191.202C282.619 191.289 275.423 189.536 269.188 185.91C234.544 165.767 212.476 107.679 239.5 0.5C112.5 29 64.0001 149 67.5001 307.5Z" fill="#892CDC" />
<path d="M222.771 509.707C205.973 502.83 200.73 494.277 197.5 477.005C225 491.005 256 477.005 268 452.005C295.353 475.186 332.594 467.845 347.435 434.767C349.826 429.439 350.5 423.539 350.5 417.699V343.005C357.261 343.746 363.696 362.136 376.935 395.558C378.621 399.816 379.5 404.358 379.5 408.938V410.139C379.5 413.697 378.973 417.235 377.935 420.638L356.259 491.737C355.098 495.545 353.28 499.176 350.438 501.964C345.137 507.166 339.975 509.668 332.215 511.412C328.466 512.255 324.567 512.062 320.806 511.27C291.071 505.012 271.205 504.14 238.545 510.779C233.272 511.85 227.75 511.745 222.771 509.707Z" fill="#02010B"/>
<path d="M91.7719 430.857C82.3032 448.711 57.3033 453.317 44.2981 432.109C41.7523 427.958 41 423.002 41 418.132V283.906C41 279.332 41.4918 274.694 43.4334 270.554C44.6058 268.053 45.9904 265.848 48 263.005C59.8668 249.864 80.7146 246.425 90.7508 255.124C94.4012 258.287 95 263.493 95 268.324C95 269.106 95.0989 269.899 95.4551 270.595C97.6608 274.91 103.159 275.127 106.021 271.248C106.806 270.185 107 268.825 107 267.504V251.914C107 246.369 107.802 240.663 110.914 236.073C115.766 228.914 122.97 225.833 141.5 225.833C159.431 225.833 164.803 228.16 169.292 234.969C172.819 240.318 174 246.85 174 253.257V253.808C174 255.59 174.239 257.426 175.266 258.882C178.134 262.949 182.643 262.508 185.284 258.799C186.281 257.398 186.5 255.624 186.5 253.905V224.12C186.5 219.085 187.199 213.979 189.607 209.557C195.453 198.821 204.124 194.842 223 195.005C243.604 195.183 252.415 200.583 257.028 210.966C258.612 214.532 259 218.485 259 222.387V249.924C259 251.611 259.384 253.391 260.747 254.384C262.912 255.961 265.929 256.175 268.503 254.702C270.377 253.63 270.913 251.262 270.906 249.103C270.721 194.499 337.5 219.257 337.5 256.505V422.943C337.5 426.633 337.114 430.373 335.593 433.735C323.23 461.047 281.883 462.021 272.899 432.14C272.184 429.759 271.989 427.254 271.969 424.769L271.011 310.802C271.004 309.941 270.929 309.06 270.523 308.301C268.43 304.391 262.235 304.017 259.69 308.039C259.115 308.948 259 310.053 259 311.128V435.581C259 439.181 258.608 442.819 257.256 446.155C244.544 477.515 202.535 479.897 188.073 446.641C186.49 443.001 186 438.987 186 435.017V323.352C186 322.125 185.935 320.85 185.292 319.806C182.991 316.072 177.009 316.072 174.708 319.806C174.065 320.85 174 322.125 174 323.352V430.294C174 432.762 173.815 435.248 173.111 437.613C163.884 468.585 119.687 472.801 108.197 438.249C107.275 435.476 107 432.53 107 429.608V336.439C107 334.827 106.855 333.134 105.857 331.868C103.312 328.645 98.2789 328.377 95.42 331.624C94.2033 333.005 94 334.949 94 336.79V419.706C94 423.55 93.5729 427.461 91.7719 430.857Z" fill="#02010B"/>
</svg>
