<svg width="369" height="428" viewBox="0 0 369 428" fill="none" xmlns="http://www.w3.org/2000/svg">
<g id="abdominal">
<path id="Main Body" d="M86.5562 37.3881L135.788 9.06866C140.6 6.30093 145.842 4.3221 151.312 3.37889C177.152 -1.0767 193.955 -1.16059 217.777 3.33435C222.882 4.29759 227.76 6.20708 232.263 8.79732L281.967 37.3882C281.967 37.3882 317.712 38.2571 335.967 49.8882C365.467 68.8882 374.405 104.114 359.967 166.888C363.287 186.219 367.967 186.388 368.467 216.388C368.798 236.223 367.598 255.184 366.748 265.756C366.304 271.272 363.514 276.371 358.886 279.406C344.473 288.859 334.03 290.288 319.162 283.043C314.75 280.893 311.627 276.807 310.281 272.087C303.187 247.21 300.472 224.939 297.467 198.388C290.965 223.152 286.731 237.708 274.967 260.888C278.834 284.275 279.36 297.961 275.967 323.888C283.537 332.054 285.765 346.445 286.654 376.074C286.903 384.385 281.849 391.967 274.055 394.864C205.88 420.204 162.599 420.424 94.4101 394.884C86.6454 391.976 81.6199 384.41 81.868 376.122C82.7557 346.461 84.982 332.058 92.5562 323.888C89.1636 297.961 89.6897 284.274 93.5562 260.888C81.7926 237.708 77.5582 223.152 71.0562 198.388C68.0639 224.828 65.3594 247.024 58.3316 271.775C56.9377 276.684 53.6149 280.887 48.9793 283.02C32.9682 290.389 22.6256 288.653 9.24081 279.395C4.84564 276.355 2.23442 271.411 1.80235 266.084C0.950278 255.58 -0.277826 236.43 0.0562132 216.388C0.556213 186.388 5.23675 186.219 8.55621 166.888C-5.88115 104.114 3.05621 68.8881 32.5562 49.8881C50.8117 38.257 86.5562 37.3881 86.5562 37.3881Z" fill="white"/>
<g id="Lower abdominals">
<path id="Vector 15" d="M159.1 312.406L145.971 316.01C140.503 317.511 134.63 315.024 132.388 309.816C127.728 298.991 125.349 287.869 127.514 270.621C128.061 266.267 131.17 262.668 135.387 261.456C146.886 258.149 155.11 257.538 165.896 259.049C169.791 259.595 173.156 262.196 174.34 265.946C177.116 274.743 176.454 281.951 174.203 292.735C173.812 294.609 173.002 296.403 171.61 297.718C171.548 297.777 171.486 297.835 171.422 297.893C169.386 299.772 167.841 302.096 166.852 304.683C166.131 306.569 165.303 307.97 164.204 309.316C162.918 310.892 161.062 311.868 159.1 312.406Z" fill="#1E1E1E"/>
<path id="Vector 20" d="M209.507 312.406L222.637 316.01C228.104 317.511 233.978 315.024 236.219 309.816C240.879 298.991 243.258 287.869 241.093 270.621C240.546 266.267 237.437 262.668 233.22 261.456C221.721 258.149 213.497 257.538 202.711 259.049C198.816 259.595 195.451 262.196 194.268 265.946C191.492 274.743 192.153 281.951 194.404 292.735C194.795 294.609 195.605 296.403 196.997 297.718C197.059 297.777 197.122 297.835 197.185 297.893C199.221 299.772 200.766 302.096 201.755 304.683C202.476 306.569 203.304 307.97 204.403 309.316C205.689 310.892 207.545 311.868 209.507 312.406Z" fill="#1E1E1E"/>
<path id="Vector 16" d="M167.839 319.586C160.711 318.032 152.964 319.811 141.683 326.24C137.229 328.778 134.811 333.799 135.349 338.897C139.434 377.555 148.978 387.99 159.267 393.588C163.622 395.957 169.328 395.386 171.807 391.093C178.434 379.618 176.121 359.061 175.662 330.933C175.579 325.795 172.859 320.681 167.839 319.586Z" fill="#1E1E1E"/>
<path id="Vector 21" d="M200.768 319.586C207.896 318.032 215.643 319.811 226.924 326.24C231.378 328.778 233.786 333.798 233.296 338.901C229.628 377.113 223.155 387.747 214.135 393.393C209.933 396.024 204.258 395.372 201.481 391.265C193.747 379.824 193.079 359.203 193.021 330.934C193.011 325.795 195.748 320.681 200.768 319.586Z" fill="#1E1E1E"/>
</g>
<g id="Upper abdominals">
<path id="Vector 14" d="M167.954 252.421C156.309 253.644 146 252.835 134.434 254.774C129.122 255.665 123.712 252.427 123.285 247.058C122.598 238.404 123.009 228.841 126.113 221.994C126.695 220.709 127.695 219.668 128.923 218.973C139.384 213.049 155.48 210.758 169.281 212.709C172.302 213.136 174.79 215.304 175.379 218.297C176.909 226.074 176.499 236.241 175.146 245.482C174.605 249.173 171.663 252.031 167.954 252.421Z" fill="#1E1E1E"/>
<path id="Vector 19" d="M200.653 252.421C212.298 253.644 222.607 252.835 234.173 254.774C239.485 255.665 244.895 252.427 245.321 247.058C246.009 238.404 245.598 228.841 242.494 221.994C241.911 220.709 240.912 219.668 239.684 218.973C229.223 213.049 213.127 210.758 199.326 212.709C196.305 213.136 193.817 215.304 193.228 218.297C191.698 226.074 192.108 236.241 193.461 245.482C194.002 249.173 196.944 252.031 200.653 252.421Z" fill="#1E1E1E"/>
<path id="Vector 13" d="M168.796 206.723C155.952 205.917 145.466 207.877 133.013 212.666C129.779 213.909 126 212.314 125.664 208.866C125.096 203.047 126.76 197.439 130.31 191.084C130.495 190.752 130.709 190.442 130.966 190.162C139.343 181.019 162.35 175.554 171.995 177.335C172.73 177.471 173.415 177.798 173.945 178.325C178.439 182.799 178.403 192.932 174.724 203.097C173.848 205.519 171.366 206.884 168.796 206.723Z" fill="#1E1E1E"/>
<path id="Vector 23" d="M199.811 206.723C212.655 205.917 223.141 207.877 235.594 212.666C238.828 213.909 242.606 212.314 242.943 208.866C243.511 203.047 241.847 197.439 238.297 191.084C238.112 190.752 237.897 190.442 237.641 190.162C229.264 181.019 206.257 175.554 196.612 177.335C195.877 177.471 195.192 177.798 194.662 178.325C190.168 182.799 190.204 192.932 193.883 203.097C194.759 205.519 197.241 206.884 199.811 206.723Z" fill="#1E1E1E"/>
</g>
</g>
</svg>
