<svg width="459" height="440" viewBox="0 0 459 440" fill="none" xmlns="http://www.w3.org/2000/svg">
<g id="back upper leg">
<path id="Vector 99" d="M413.128 439.604C365.593 429.995 342.787 433.166 288.606 438.694C280.597 439.511 272.404 436.028 269.069 428.7C262.29 413.8 264.81 401.164 274.772 378.517C275.304 377.306 275.577 375.978 275.555 374.656C275.105 348.184 275.836 333.581 275.591 311.381C274.985 256.6 240.864 231.426 235.227 201.579C230.569 176.908 236.149 154.025 228.263 140.295C225.673 135.786 219.416 137.675 215.877 141.485C186.985 172.589 69.6099 186.416 55.0948 182.762C-9.56083 166.487 -22.6822 20.2796 44.7429 6.8235C51.4667 5.48163 58.3502 4.47971 65.0867 3.20331C104.805 -4.32224 195.968 3.41697 244.266 6.1006C262.047 7.08858 288.583 10.421 305.374 16.3516L326.534 23.8252C340.281 28.6803 349.459 41.7612 348.842 56.3271C344.781 152.291 326.005 249.061 333.303 344.917C333.482 347.274 334.634 349.488 336.429 351.026C391.016 397.787 403.894 404.615 427.447 411.273C435.538 412.606 441.059 413.229 447.702 413.577C452.88 413.849 458.195 416.671 458.883 421.81C459.604 427.192 457.045 431.628 449.555 437.272C447.108 439.115 444.026 439.995 440.999 439.522C439.948 439.357 438.98 439.157 438.056 438.913C432.879 437.543 427.365 437.837 422.149 439.049C420.669 439.393 419.003 439.642 417.012 439.835C415.721 439.96 414.398 439.861 413.128 439.604Z" fill="#D9D9D9"/>
<path id="Vector 101" d="M27.7995 124.668L26.2134 140.071C25.7474 144.597 26.4095 149.289 29.1585 152.915C40.8103 168.283 65.9688 175.739 117.001 168.5C165.579 155.627 209.483 148.427 223.605 115.142C226.005 109.485 221.424 103.746 215.284 103.525C151.437 101.225 110.676 101.13 50.7368 103.192C38.7998 103.602 29.0229 112.786 27.7995 124.668Z" fill="#1E1E1E"/>
</g>
</svg>
