<svg width="358" height="383" viewBox="0 0 358 383" fill="none" xmlns="http://www.w3.org/2000/svg">
<g id="biceps">
<path id="Vector 96" d="M71.7228 340.101C56.0888 358.804 44.107 369.992 23.5647 379.645C20.245 381.205 16.3715 379.266 15.486 375.706C-4.37983 295.843 -6.52669 250.362 17.2362 178.797C18.0815 176.251 20.5515 174.568 23.2278 174.745C53.2944 176.736 69.9475 182.345 97.7419 195.061C103.129 197.526 109.31 197.622 114.844 195.509C162.159 177.448 187.458 183.771 227.69 218.078C229.148 219.321 231.385 218.014 231.006 216.135C213.892 131.45 203.381 65.4866 175.191 63.9769L157.136 81.172C155.219 82.9983 152.789 84.1954 150.173 84.6031L120.748 89.1887C117.498 89.6952 114.64 91.4946 112.334 93.84C109.268 96.9579 106.304 98.7709 102.608 99.9147C97.6399 101.452 92.5381 98.5381 89.9886 94.0057L80.6911 77.4769L72.6191 62.0666C70.7703 58.537 70.6183 54.3393 72.3583 50.7548C79.348 36.3561 86.7473 25.7293 98.6518 9.58795C100.601 6.94561 103.487 5.13396 106.72 4.56314C154.141 -3.80885 178.985 -0.942353 214.06 15.5014C216.785 16.7788 219.19 18.74 221.048 21.1075C291.947 111.449 314.585 158.052 351.141 238.762C351.503 239.562 351.933 240.347 352.397 241.093C359.017 251.759 359.432 258.24 354.038 267.349C352.592 269.79 351.597 272.476 350.727 275.177C335.658 322.007 179.635 356.657 90.4781 334.245C83.6023 332.517 76.2698 334.661 71.7228 340.101Z" fill="#D9D9D9"/>
<path id="Vector 97" d="M223.68 251.296C175.06 242.838 139.134 243.604 96.7126 251.587C92.9839 252.289 89.4841 249.447 89.8468 245.67C92.5344 217.678 111.464 188.783 168 192C206.663 199.03 222.687 221.838 230.294 243.933C231.726 248.094 228.016 252.05 223.68 251.296Z" fill="#1E1E1E"/>
</g>
</svg>
