<svg width="369" height="414" viewBox="0 0 369 414" fill="none" xmlns="http://www.w3.org/2000/svg">
<g id="chest">
<path id="Main Body" d="M86.5562 37.3881L135.788 9.06866C140.6 6.30093 145.842 4.3221 151.312 3.37889C177.152 -1.0767 193.955 -1.16059 217.777 3.33435C222.882 4.29759 227.76 6.20708 232.263 8.79732L281.967 37.3882C281.967 37.3882 317.712 38.2571 335.967 49.8882C365.467 68.8882 374.405 104.114 359.967 166.888C363.287 186.219 367.967 186.388 368.467 216.388C368.798 236.223 367.598 255.184 366.748 265.756C366.304 271.272 363.514 276.371 358.886 279.406C344.473 288.859 334.03 290.288 319.162 283.043C314.75 280.893 311.627 276.807 310.281 272.087C303.187 247.21 300.472 224.939 297.467 198.388C290.965 223.152 286.731 237.708 274.967 260.888C278.834 284.275 279.36 297.961 275.967 323.888C283.537 332.054 285.765 346.445 286.654 376.074C286.903 384.385 281.849 391.967 274.055 394.864C205.88 420.204 162.599 420.424 94.4101 394.884C86.6454 391.976 81.6199 384.41 81.868 376.122C82.7557 346.461 84.982 332.058 92.5562 323.888C89.1636 297.961 89.6897 284.274 93.5562 260.888C81.7926 237.708 77.5582 223.152 71.0562 198.388C68.0639 224.828 65.3594 247.024 58.3316 271.775C56.9377 276.684 53.6149 280.887 48.9793 283.02C32.9682 290.389 22.6256 288.653 9.24081 279.395C4.84564 276.355 2.23442 271.411 1.80235 266.084C0.950278 255.58 -0.277826 236.43 0.0562132 216.388C0.556213 186.388 5.23675 186.219 8.55621 166.888C-5.88115 104.114 3.05621 68.8881 32.5562 49.8881C50.8117 38.257 86.5562 37.3881 86.5562 37.3881Z" fill="white"/>
<path id="Chest" d="M145.347 180.256C130.883 184.343 117.079 185.424 98.6242 182.997C90.5031 181.929 82.683 178.759 76.6088 173.264C62.8248 160.794 58.4791 147.463 64.9242 119.266C66.6347 111.782 70.2456 104.837 75.4644 99.2072C85.3293 88.5655 95.9296 80.2977 112.131 73.3144C119.399 70.1815 127.442 69.2113 135.269 70.3878C142.125 71.4184 147.931 72.8111 153.519 74.9183C167.421 80.1606 175.725 94.1736 177.206 108.957C178.305 119.93 178.382 129.452 177.686 139.276C176.344 158.23 163.633 175.089 145.347 180.256Z" fill="#1E1E1E"/>
<path id="Chest_2" d="M221.128 180.256C235.592 184.343 249.397 185.424 267.851 182.997C275.972 181.929 283.792 178.759 289.867 173.264C303.651 160.794 307.996 147.463 301.551 119.266C299.841 111.782 296.23 104.837 291.011 99.2072C281.146 88.5655 270.546 80.2977 254.345 73.3144C247.076 70.1815 239.033 69.2113 231.207 70.3878C224.35 71.4184 218.544 72.8111 212.956 74.9183C199.055 80.1606 190.75 94.1736 189.27 108.957C188.171 119.93 188.093 129.452 188.789 139.276C190.131 158.23 202.842 175.089 221.128 180.256Z" fill="#1E1E1E"/>
</g>
</svg>
