<svg width="176" height="179" viewBox="0 0 176 179" fill="none" xmlns="http://www.w3.org/2000/svg">
<path d="M0 8C0 3.58172 3.58172 0 8 0H117C121.418 0 125 3.58172 125 8V118C125 122.418 121.418 126 117 126H8C3.58172 126 0 122.418 0 118V8Z" fill="#DADADA"/>
<path d="M4 8C4 5.79086 5.79086 4 8 4H117C119.209 4 121 5.79086 121 8V92C121 94.2091 119.209 96 117 96H8C5.79086 96 4 94.2091 4 92V8Z" fill="#1B1B1B"/>
<path d="M96.0109 36.3691L89.2845 29.6426L90.5672 28.3599C92.4771 26.45 92.4771 23.3538 90.5672 21.4439C88.6573 19.534 85.561 19.534 83.6512 21.4439L82.3685 22.7266L75.6423 16L68.715 22.9275L62.6468 16.859L55.7197 23.7862L68.5143 36.5811L48.5804 56.5146L35.7858 43.7203L28.8588 50.6472L34.9271 56.7153L28 63.6424L34.7262 70.3686L33.4434 71.6516C31.5335 73.5615 31.5335 76.6579 33.4434 78.5676C35.3533 80.4774 38.4497 80.4775 40.3596 78.5676L41.6423 77.285L48.3576 84L55.2927 77.0808L61.3642 83.1525L68.2804 76.2365L55.4857 63.4415L75.4303 43.4968L88.225 56.2918L95.1521 49.3646L89.0839 43.2962L96.0109 36.3691Z" fill="#DADADA"/>
<rect x="19" y="107" width="87" height="6" rx="3" fill="#747474"/>
<path d="M159.726 163.9L144.465 148.639L139.804 153.299C135.034 158.07 132.648 160.455 130.084 159.892C127.52 159.329 126.354 156.164 124.021 149.832L116.242 128.717C111.588 116.087 109.262 109.772 112.517 106.517C115.772 103.262 122.087 105.588 134.717 110.242L155.832 118.021C162.164 120.354 165.329 121.52 165.892 124.084C166.455 126.648 164.07 129.034 159.299 133.804L154.639 138.465L169.9 153.726C171.48 155.306 172.27 156.096 172.635 156.977C173.122 158.153 173.122 159.473 172.635 160.648C172.27 161.529 171.48 162.319 169.9 163.9C168.319 165.48 167.529 166.27 166.648 166.635C165.473 167.122 164.153 167.122 162.977 166.635C162.096 166.27 161.306 165.48 159.726 163.9Z" fill="#9D84B4"/>
</svg>
