<svg width="444" height="448" viewBox="0 0 444 448" fill="none" xmlns="http://www.w3.org/2000/svg">
<g id="glutes">
<path id="glutes_2" fill-rule="evenodd" clip-rule="evenodd" d="M223.406 0.000738606C292.539 -0.0442456 335.71 1.97265 404.275 4.10999C405.622 4.15199 406.8 5.11523 407.119 6.42471C449.553 180.611 453.74 279.112 428.022 441.925C427.656 444.243 425.709 446.03 423.367 446.162C374.567 448.912 344.962 448.317 297.416 446.084C295.451 445.991 293.705 444.745 292.994 442.911C264.848 370.382 255.864 305.552 245.608 188.127C292.551 196.388 315.661 198.244 341.354 188.127C370.403 175.704 379.129 163.107 389.473 137.671C389.764 136.956 389.845 136.162 389.687 135.407C387.371 124.342 383.78 120.254 367.718 124.025L367.54 124.321C355.136 144.916 346.292 159.599 327.971 165.67C327.646 165.778 327.299 165.84 326.958 165.858C293.858 167.596 272.809 165.645 238.877 156.857C237.12 156.402 235.895 154.812 235.895 152.997V94.3064C235.895 91.9441 234.867 89.6703 232.978 88.2521C223.816 81.3743 218.192 81.7003 210.582 88.2905C208.953 89.7011 208.105 91.7951 208.105 93.9498V147.486C208.105 152.548 204.702 156.993 199.808 158.203C169.216 165.768 148.78 167.471 117.954 165.905C117.01 165.858 116.061 165.69 115.168 165.376C98.5328 159.523 89.7946 146.37 78.7043 128.042C77.152 125.476 74.6447 123.575 71.692 123.107C60.3776 121.313 56.888 124.891 54.785 133.334C54.2633 135.428 54.5061 137.641 55.3327 139.634C65.3394 163.764 74.3543 176.028 102.646 188.127C125.593 197.163 162.163 194.225 199.808 188.127C208.105 223.355 163.092 410.928 153.062 437.536C151.132 442.658 146.321 446.1 140.874 446.348C98.887 448.256 70.5017 448.751 27.7514 446.546C21.2514 446.211 15.8677 441.297 14.8708 434.838C-9.41951 277.452 -5.0043 179.595 35.9144 10.4061C36.7965 6.75846 40.0148 4.10096 43.7509 3.98721C109.756 1.97756 155.64 -0.0433562 223.406 0.000738606ZM399.634 220.42C399.634 219.372 399.223 218.359 398.474 217.626C388.724 208.089 382.773 207.675 373.015 217.603C372.281 218.35 371.894 219.387 371.918 220.434C373.013 269.953 373.968 297.496 373.293 343.97C373.278 345.005 373.663 346.023 374.379 346.771C384.13 356.944 388.876 357.951 398.682 346.707C399.302 345.996 399.634 345.079 399.634 344.135V220.42ZM47.6664 215.628C55.5116 208.688 61.0207 208.419 68.8787 215.569C71.0391 217.535 72.0829 220.428 72.0174 223.355C70.9723 270.038 70.084 297.244 70.6669 341.086C70.7053 343.978 69.6564 346.812 67.5878 348.825C59.7203 356.48 55.0645 357.09 47.078 348.649C45.2688 346.737 44.3665 344.149 44.3665 341.511V223.356C44.3665 220.427 45.4779 217.564 47.6664 215.628Z" fill="white"/>
</g>
</svg>
