<svg width="369" height="414" viewBox="0 0 369 414" fill="none" xmlns="http://www.w3.org/2000/svg">
<g id="lower back">
<path id="Main Body" d="M86.5562 37.3881L135.788 9.06866C140.6 6.30093 145.842 4.3221 151.312 3.37889C177.152 -1.0767 193.955 -1.16059 217.777 3.33435C222.882 4.29759 227.76 6.20708 232.263 8.79732L281.967 37.3882C281.967 37.3882 317.712 38.2571 335.967 49.8882C365.467 68.8882 374.405 104.114 359.967 166.888C363.287 186.219 367.967 186.388 368.467 216.388C368.798 236.223 367.598 255.184 366.748 265.756C366.304 271.272 363.514 276.371 358.886 279.406C344.473 288.859 334.03 290.288 319.162 283.043C314.75 280.893 311.627 276.807 310.281 272.087C303.187 247.21 300.472 224.939 297.467 198.388C290.965 223.152 286.731 237.708 274.967 260.888C278.834 284.275 279.36 297.961 275.967 323.888C283.537 332.054 285.765 346.445 286.654 376.074C286.903 384.385 281.849 391.967 274.055 394.864C205.88 420.204 162.599 420.424 94.4101 394.884C86.6454 391.976 81.6199 384.41 81.868 376.122C82.7557 346.461 84.982 332.058 92.5562 323.888C89.1636 297.961 89.6897 284.274 93.5562 260.888C81.7926 237.708 77.5582 223.152 71.0562 198.388C68.0639 224.828 65.3594 247.024 58.3316 271.775C56.9377 276.684 53.6149 280.887 48.9793 283.02C32.9682 290.389 22.6256 288.653 9.24081 279.395C4.84564 276.355 2.23442 271.411 1.80235 266.084C0.950278 255.58 -0.277826 236.43 0.0562132 216.388C0.556213 186.388 5.23675 186.219 8.55621 166.888C-5.88115 104.114 3.05621 68.8881 32.5562 49.8881C50.8117 38.257 86.5562 37.3881 86.5562 37.3881Z" fill="white"/>
<path id="Vector 35" d="M172.525 336.742C175.686 297.085 177.28 251.873 173.917 230.444C173.222 226.012 168.426 225.401 166.436 229.423C157.295 247.897 148.461 279.788 127.225 291.093C126.705 291.37 126.203 291.685 125.758 292.071C120.631 296.524 119.774 300.63 122.578 307.166C123.374 309.021 125.007 310.358 126.878 311.117C143.43 317.833 153.529 329.408 162.623 339.83L162.806 340.04C166.151 343.873 172.12 341.813 172.525 336.742Z" fill="#1E1E1E"/>
<path id="Vector 85" d="M194.582 336.742C191.42 297.085 189.826 251.873 193.189 230.444C193.884 226.012 198.68 225.401 200.67 229.423C209.811 247.897 218.646 279.788 239.881 291.093C240.401 291.37 240.904 291.685 241.348 292.071C246.475 296.524 247.332 300.63 244.528 307.166C243.732 309.021 242.099 310.358 240.228 311.117C223.676 317.833 213.577 329.408 204.484 339.83L204.3 340.04C200.956 343.873 194.986 341.813 194.582 336.742Z" fill="#1E1E1E"/>
</g>
</svg>
