<svg width="369" height="414" viewBox="0 0 369 414" fill="none" xmlns="http://www.w3.org/2000/svg">
<g id="middle back">
<path id="Main Body" d="M86.5562 37.3881L135.788 9.06866C140.6 6.30093 145.842 4.3221 151.312 3.37889C177.152 -1.0767 193.955 -1.16059 217.777 3.33435C222.882 4.29759 227.76 6.20708 232.263 8.79732L281.967 37.3882C281.967 37.3882 317.712 38.2571 335.967 49.8882C365.467 68.8882 374.405 104.114 359.967 166.888C363.287 186.219 367.967 186.388 368.467 216.388C368.798 236.223 367.598 255.184 366.748 265.756C366.304 271.272 363.514 276.371 358.886 279.406C344.473 288.859 334.03 290.288 319.162 283.043C314.75 280.893 311.627 276.807 310.281 272.087C303.187 247.21 300.472 224.939 297.467 198.388C290.965 223.152 286.731 237.708 274.967 260.888C278.834 284.275 279.36 297.961 275.967 323.888C283.537 332.054 285.765 346.445 286.654 376.074C286.903 384.385 281.849 391.967 274.055 394.864C205.88 420.204 162.599 420.424 94.4101 394.884C86.6454 391.976 81.6199 384.41 81.868 376.122C82.7557 346.461 84.982 332.058 92.5562 323.888C89.1636 297.961 89.6897 284.274 93.5562 260.888C81.7926 237.708 77.5582 223.152 71.0562 198.388C68.0639 224.828 65.3594 247.024 58.3316 271.775C56.9377 276.684 53.6149 280.887 48.9793 283.02C32.9682 290.389 22.6256 288.653 9.24081 279.395C4.84564 276.355 2.23442 271.411 1.80235 266.084C0.950278 255.58 -0.277826 236.43 0.0562132 216.388C0.556213 186.388 5.23675 186.219 8.55621 166.888C-5.88115 104.114 3.05621 68.8881 32.5562 49.8881C50.8117 38.257 86.5562 37.3881 86.5562 37.3881Z" fill="white"/>
<path id="Vector 37" d="M109.832 126.102C101.56 133.699 90.7374 136.09 75.8766 130.491C72.147 129.085 67.9428 131.94 68.3472 135.905L69.3637 145.869L72.0954 174.181C78.2449 210.253 82.9328 230.636 105.907 266.019C106.434 266.832 107.162 267.521 108.02 267.971C115.027 271.643 119.06 271.624 124.931 269.335C125.743 269.018 126.468 268.496 127.051 267.847C141.974 251.239 149.092 238.937 157.89 218.851C160.641 212.57 160.781 205.447 158.281 199.062C148.091 173.03 134.912 144.899 119.178 126.122C116.817 123.303 112.54 123.615 109.832 126.102Z" fill="#1E1E1E"/>
<path id="Vector 89" d="M259.199 126.099C267.479 133.688 278.304 136.066 293.159 130.451C296.887 129.042 301.094 131.891 300.694 135.857L299.688 145.823L296.987 174.137C290.877 210.215 286.211 230.604 263.275 266.012C262.749 266.825 262.022 267.516 261.165 267.966C254.161 271.646 250.129 271.631 244.255 269.348C243.442 269.032 242.717 268.511 242.134 267.863C227.193 251.271 220.061 238.976 211.242 218.9C208.484 212.622 208.336 205.5 210.828 199.111C220.991 173.069 234.139 144.923 249.853 126.129C252.211 123.308 256.488 123.615 259.199 126.099Z" fill="#1E1E1E"/>
</g>
</svg>
