<svg width="569" height="407" viewBox="0 0 569 407" fill="none" xmlns="http://www.w3.org/2000/svg">
<g id="neck">
<path id="Main Body" d="M101.269 383.563L207.225 322.627L205.35 270.128C205.35 270.128 202.212 263.959 200.662 259.816C197.849 244.816 195.973 221.379 195.973 221.379C191.285 221.379 188.422 222.122 184.721 218.21C168.409 200.961 164.659 181.782 165.968 146.381C171.594 137.006 176.282 137.006 176.282 137.006L184.721 146.381C184.721 146.381 178.027 98.2593 184.721 72.3202C198.786 9.50925 250.358 0.134767 283.177 0.134423C373.027 -3.61511 384.279 72.3205 384.279 72.3205C390.973 98.2596 384.279 146.381 384.279 146.381L392.718 137.006C392.718 137.006 397.406 137.006 403.032 146.381C404.341 181.782 400.591 200.962 384.279 218.21C380.578 222.123 377.715 221.379 373.027 221.379C373.027 221.379 371.151 244.816 368.338 259.816C366.788 263.959 363.65 270.128 363.65 270.128L361.775 322.627L467.731 383.563C467.731 383.563 524.247 384.937 559.996 402.044C562.702 403.339 561.707 407 558.706 407L10.2935 407C7.29287 407 6.29765 403.339 9.00433 402.043C44.7526 384.936 101.269 383.563 101.269 383.563Z" fill="white"/>
<path id="neck-left" d="M248 322.504C241.692 315.912 233.391 309.481 223.233 298.655C221.898 297.233 219.477 298.328 219.711 300.264C225.652 349.566 237.08 372.819 261.289 395.307C261.527 395.527 261.823 395.69 262.137 395.772C273.124 398.648 276.607 396.889 275.916 386.019C275.89 385.612 275.729 385.212 275.472 384.894C259.215 364.79 254.314 350.439 248.503 323.46C248.426 323.103 248.252 322.768 248 322.504Z" fill="#1E1E1E"/>
<path id="neck-right" d="M321 322.504C327.308 315.912 335.609 309.481 345.767 298.655C347.102 297.233 349.523 298.328 349.289 300.264C343.348 349.566 331.92 372.819 307.711 395.307C307.473 395.527 307.177 395.69 306.863 395.772C295.876 398.648 292.393 396.889 293.084 386.019C293.11 385.612 293.271 385.212 293.528 384.894C309.785 364.79 314.686 350.439 320.497 323.46C320.574 323.103 320.748 322.768 321 322.504Z" fill="#1E1E1E"/>
</g>
</svg>
