<svg width="369" height="414" viewBox="0 0 369 414" fill="none" xmlns="http://www.w3.org/2000/svg">
<g id="oblique">
<path id="Main Body" d="M86.5562 37.3881L135.788 9.06866C140.6 6.30093 145.842 4.3221 151.312 3.37889C177.152 -1.0767 193.955 -1.16059 217.777 3.33435C222.882 4.29759 227.76 6.20708 232.263 8.79732L281.967 37.3882C281.967 37.3882 317.712 38.2571 335.967 49.8882C365.467 68.8882 374.405 104.114 359.967 166.888C363.287 186.219 367.967 186.388 368.467 216.388C368.798 236.223 367.598 255.184 366.748 265.756C366.304 271.272 363.514 276.371 358.886 279.406C344.473 288.859 334.03 290.288 319.162 283.043C314.75 280.893 311.627 276.807 310.281 272.087C303.187 247.21 300.472 224.939 297.467 198.388C290.965 223.152 286.731 237.708 274.967 260.888C278.834 284.275 279.36 297.961 275.967 323.888C283.537 332.054 285.765 346.445 286.654 376.074C286.903 384.385 281.849 391.967 274.055 394.864C205.88 420.204 162.599 420.424 94.4101 394.884C86.6454 391.976 81.6199 384.41 81.868 376.122C82.7557 346.461 84.982 332.058 92.5562 323.888C89.1636 297.961 89.6897 284.274 93.5562 260.888C81.7926 237.708 77.5582 223.152 71.0562 198.388C68.0639 224.828 65.3594 247.024 58.3316 271.775C56.9377 276.684 53.6149 280.887 48.9793 283.02C32.9682 290.389 22.6256 288.653 9.24081 279.395C4.84564 276.355 2.23442 271.411 1.80235 266.084C0.950278 255.58 -0.277826 236.43 0.0562132 216.388C0.556213 186.388 5.23675 186.219 8.55621 166.888C-5.88115 104.114 3.05621 68.8881 32.5562 49.8881C50.8117 38.257 86.5562 37.3881 86.5562 37.3881Z" fill="white"/>
<path id="Vector 73" d="M113.947 179.539C100.69 179.707 91.3163 175.451 79.0194 170.488C74.8924 168.822 70.589 172.2 71.2506 176.601C76.3782 210.711 86.5802 226.931 98.0731 260.738C98.3527 261.56 98.4502 262.45 98.3608 263.314C96.1458 284.733 96.9413 302.644 100.895 322.962C100.964 323.319 101.07 323.678 101.204 324.016C107.465 339.734 113.077 347.64 121.312 354.033C125.325 357.147 130.698 353.406 129.862 348.395C118.755 281.808 115.428 242.43 120.741 186.549C121.107 182.698 117.815 179.49 113.947 179.539Z" fill="#1E1E1E"/>
<path id="Vector 76" d="M253.848 179.539C267.105 179.707 276.479 175.451 288.776 170.488C292.903 168.822 297.206 172.2 296.545 176.601C291.417 210.711 281.215 226.931 269.722 260.738C269.442 261.56 269.345 262.45 269.434 263.314C271.649 284.733 270.854 302.644 266.901 322.962C266.831 323.319 266.725 323.678 266.591 324.016C260.33 339.734 254.719 347.64 246.483 354.033C242.47 357.147 237.097 353.406 237.933 348.395C249.041 281.808 252.367 242.43 247.054 186.549C246.688 182.698 249.98 179.49 253.848 179.539Z" fill="#1E1E1E"/>
</g>
</svg>
