<svg width="369" height="414" viewBox="0 0 369 414" fill="none" xmlns="http://www.w3.org/2000/svg">
<g id="upper back">
<path id="Main Body" d="M86.5562 37.3881L135.788 9.06866C140.6 6.30093 145.842 4.3221 151.312 3.37889C177.152 -1.0767 193.955 -1.16059 217.777 3.33435C222.882 4.29759 227.76 6.20708 232.263 8.79732L281.967 37.3882C281.967 37.3882 317.712 38.2571 335.967 49.8882C365.467 68.8882 374.405 104.114 359.967 166.888C363.287 186.219 367.967 186.388 368.467 216.388C368.798 236.223 367.598 255.184 366.748 265.756C366.304 271.272 363.514 276.371 358.886 279.406C344.473 288.859 334.03 290.288 319.162 283.043C314.75 280.893 311.627 276.807 310.281 272.087C303.187 247.21 300.472 224.939 297.467 198.388C290.965 223.152 286.731 237.708 274.967 260.888C278.834 284.275 279.36 297.961 275.967 323.888C283.537 332.054 285.765 346.445 286.654 376.074C286.903 384.385 281.849 391.967 274.055 394.864C205.88 420.204 162.599 420.424 94.4101 394.884C86.6454 391.976 81.6199 384.41 81.868 376.122C82.7557 346.461 84.982 332.058 92.5562 323.888C89.1636 297.961 89.6897 284.274 93.5562 260.888C81.7926 237.708 77.5582 223.152 71.0562 198.388C68.0639 224.828 65.3594 247.024 58.3316 271.775C56.9377 276.684 53.6149 280.887 48.9793 283.02C32.9682 290.389 22.6256 288.653 9.24081 279.395C4.84564 276.355 2.23442 271.411 1.80235 266.084C0.950278 255.58 -0.277826 236.43 0.0562132 216.388C0.556213 186.388 5.23675 186.219 8.55621 166.888C-5.88115 104.114 3.05621 68.8881 32.5562 49.8881C50.8117 38.257 86.5562 37.3881 86.5562 37.3881Z" fill="white"/>
<path id="Vector 40" d="M91.8844 51.3496C122.411 44.5856 139.697 39.7183 172.061 36.5834C175.531 36.2473 178.534 38.9786 178.58 42.4641C179.527 114.897 182.005 167.06 176.815 219.193C176.403 223.331 170.658 224.073 168.992 220.263C152.344 182.194 130.458 153.117 101.222 122.097C96.3104 116.885 95.9722 108.819 100.548 103.31L111.968 89.5593C114.76 86.1977 114.337 81.2178 111.02 78.374L89.6744 60.078C86.5311 57.3838 87.8424 52.2452 91.8844 51.3496Z" fill="#1E1E1E"/>
<path id="Vector 90" d="M275.222 51.3496C244.695 44.5856 227.409 39.7183 195.045 36.5834C191.575 36.2473 188.572 38.9786 188.527 42.4641C187.579 114.897 185.101 167.06 190.291 219.193C190.703 223.331 196.448 224.073 198.115 220.263C214.763 182.194 236.648 153.117 265.884 122.097C270.796 116.885 271.134 108.819 266.559 103.31L255.139 89.5593C252.347 86.1977 252.769 81.2178 256.086 78.374L277.432 60.078C280.575 57.3838 279.264 52.2452 275.222 51.3496Z" fill="#1E1E1E"/>
</g>
</svg>
