<svg width="1273" height="1257" viewBox="0 0 1273 1257" fill="none" xmlns="http://www.w3.org/2000/svg">
<path d="M41.6665 241.667C41.6665 131.21 131.21 41.6667 241.666 41.6667H558.333C668.79 41.6667 758.333 131.21 758.333 241.667V558.333C758.333 668.79 668.79 758.333 558.333 758.333H241.666C131.21 758.333 41.6665 668.79 41.6665 558.333V241.667Z" fill="#DADADA"/>
<path fill-rule="evenodd" clip-rule="evenodd" d="M400.827 210.783C411.927 210.783 420.923 219.782 420.923 230.882V560.937C420.923 572.037 411.923 581.034 400.823 581.034C389.723 581.034 380.727 572.037 380.727 560.937V230.882C380.727 219.782 389.727 210.783 400.827 210.783Z" fill="#1B1B1B"/>
<path fill-rule="evenodd" clip-rule="evenodd" d="M594.953 400.147C594.953 411.843 585.47 421.327 573.773 421.327H225.955C214.257 421.327 204.774 411.843 204.774 400.143C204.774 388.447 214.257 378.963 225.955 378.963L573.773 378.967C585.47 378.967 594.953 388.45 594.953 400.147Z" fill="#1B1B1B"/>
<path d="M1025.48 1097L894.203 965.72L854.113 1005.81C813.073 1046.85 792.552 1067.37 770.496 1062.53C748.441 1057.68 738.408 1030.45 718.343 975.987L651.423 794.35C611.396 685.702 591.382 631.379 619.38 603.38C647.379 575.382 701.702 595.396 810.35 635.424L991.987 702.343C1046.45 722.408 1073.68 732.441 1078.53 754.496C1083.37 776.552 1062.85 797.073 1021.81 838.113L981.72 878.203L1113 1009.48C1126.59 1023.07 1133.39 1029.87 1136.53 1037.45C1140.71 1047.56 1140.71 1058.92 1136.53 1069.03C1133.39 1076.61 1126.59 1083.4 1113 1097C1099.4 1110.59 1092.61 1117.39 1085.03 1120.53C1074.92 1124.71 1063.56 1124.71 1053.45 1120.53C1045.87 1117.39 1039.07 1110.59 1025.48 1097Z" fill="#9D84B4"/>
</svg>
